<?xml version="1.0" encoding="UTF-8" standalone="no"?>
<!-- Generator: Circuit Diagram, cdlibrary.dll 4.0.0.0 -->

<svg
   version="1.1"
   width="1060"
   height="460"
   id="svg1036"
   sodipodi:docname="glove_circuit.svg"
   inkscape:version="1.2.2 (b0a8486541, 2022-12-01)"
   xmlns:inkscape="http://www.inkscape.org/namespaces/inkscape"
   xmlns:sodipodi="http://sodipodi.sourceforge.net/DTD/sodipodi-0.dtd"
   xmlns="http://www.w3.org/2000/svg"
   xmlns:svg="http://www.w3.org/2000/svg">
  <defs
     id="defs1040" />
  <sodipodi:namedview
     id="namedview1038"
     pagecolor="#ffffff"
     bordercolor="#000000"
     borderopacity="0.25"
     inkscape:showpageshadow="2"
     inkscape:pageopacity="0.0"
     inkscape:pagecheckerboard="0"
     inkscape:deskcolor="#d1d1d1"
     showgrid="false"
     inkscape:zoom="1.2974742"
     inkscape:cx="520.62691"
     inkscape:cy="298.27182"
     inkscape:window-width="2560"
     inkscape:window-height="1440"
     inkscape:window-x="1920"
     inkscape:window-y="0"
     inkscape:window-maximized="1"
     inkscape:current-layer="svg1036" />
  <rect
     style="fill:#ffffff;fill-opacity:1;stroke:#000000;stroke-width:2.06817;stroke-dasharray:none;stroke-opacity:1"
     id="rect1204"
     width="1005.8419"
     height="433.93182"
     x="27.079041"
     y="13.034088"
     rx="10.100073"
     ry="10.235065" />
  <g
     id="g1964"
     transform="translate(-18.044678,4)">
    <line
       x1="430"
       y1="130"
       x2="790"
       y2="130"
       style="stroke:#000000;stroke-width:2;stroke-linecap:square"
       id="line628" />
    <line
       x1="260"
       y1="230"
       x2="260"
       y2="430"
       style="stroke:#000000;stroke-width:2;stroke-linecap:square"
       id="line630" />
    <line
       x1="220"
       y1="230"
       x2="260"
       y2="230"
       style="stroke:#000000;stroke-width:2;stroke-linecap:square"
       id="line632" />
    <line
       x1="220"
       y1="330"
       x2="260"
       y2="330"
       style="stroke:#000000;stroke-width:2;stroke-linecap:square"
       id="line634" />
    <line
       x1="220"
       y1="430"
       x2="790"
       y2="430"
       style="stroke:#000000;stroke-width:2;stroke-linecap:square"
       id="line636" />
    <line
       x1="890"
       y1="270"
       x2="910"
       y2="270"
       style="stroke:#000000;stroke-width:2;stroke-linecap:square"
       id="line638" />
    <line
       x1="890"
       y1="270"
       x2="890"
       y2="350"
       style="stroke:#000000;stroke-width:2;stroke-linecap:square"
       id="line640" />
    <line
       x1="860"
       y1="350"
       x2="890"
       y2="350"
       style="stroke:#000000;stroke-width:2;stroke-linecap:square"
       id="line642" />
    <line
       x1="870"
       y1="170"
       x2="910"
       y2="170"
       style="stroke:#000000;stroke-width:2;stroke-linecap:square"
       id="line644" />
    <line
       x1="870"
       y1="170"
       x2="870"
       y2="330"
       style="stroke:#000000;stroke-width:2;stroke-linecap:square"
       id="line646" />
    <line
       x1="780"
       y1="330"
       x2="870"
       y2="330"
       style="stroke:#000000;stroke-width:2;stroke-linecap:square"
       id="line648" />
    <line
       x1="850"
       y1="210"
       x2="910"
       y2="210"
       style="stroke:#000000;stroke-width:2;stroke-linecap:square"
       id="line650" />
    <line
       x1="850"
       y1="210"
       x2="850"
       y2="310"
       style="stroke:#000000;stroke-width:2;stroke-linecap:square"
       id="line652" />
    <line
       x1="780"
       y1="310"
       x2="850"
       y2="310"
       style="stroke:#000000;stroke-width:2;stroke-linecap:square"
       id="line654" />
    <line
       x1="780"
       y1="290"
       x2="830"
       y2="290"
       style="stroke:#000000;stroke-width:2;stroke-linecap:square"
       id="line656" />
    <line
       x1="830"
       y1="230"
       x2="830"
       y2="290"
       style="stroke:#000000;stroke-width:2;stroke-linecap:square"
       id="line658" />
    <line
       x1="830"
       y1="230"
       x2="910"
       y2="230"
       style="stroke:#000000;stroke-width:2;stroke-linecap:square"
       id="line660" />
    <line
       x1="810"
       y1="250"
       x2="810"
       y2="270"
       style="stroke:#000000;stroke-width:2;stroke-linecap:square"
       id="line662" />
    <line
       x1="780"
       y1="270"
       x2="810"
       y2="270"
       style="stroke:#000000;stroke-width:2;stroke-linecap:square"
       id="line664" />
    <line
       x1="810"
       y1="250"
       x2="910"
       y2="250"
       style="stroke:#000000;stroke-width:2;stroke-linecap:square"
       id="line666" />
    <line
       x1="780"
       y1="230"
       x2="790"
       y2="230"
       style="stroke:#000000;stroke-width:2;stroke-linecap:square"
       id="line668" />
    <line
       x1="780"
       y1="210"
       x2="790"
       y2="210"
       style="stroke:#000000;stroke-width:2;stroke-linecap:square"
       id="line670" />
    <line
       x1="640"
       y1="270"
       x2="640"
       y2="350"
       style="stroke:#000000;stroke-width:2;stroke-linecap:square"
       id="line672" />
    <line
       x1="640"
       y1="270"
       x2="660"
       y2="270"
       style="stroke:#000000;stroke-width:2;stroke-linecap:square"
       id="line674" />
    <line
       x1="640"
       y1="150"
       x2="640"
       y2="230"
       style="stroke:#000000;stroke-width:2;stroke-linecap:square"
       id="line676" />
    <line
       x1="640"
       y1="230"
       x2="660"
       y2="230"
       style="stroke:#000000;stroke-width:2;stroke-linecap:square"
       id="line678" />
    <line
       x1="790"
       y1="350"
       x2="860"
       y2="350"
       style="stroke:#000000;stroke-width:2;stroke-linecap:square"
       id="line680" />
    <line
       x1="790"
       y1="250"
       x2="790"
       y2="430"
       style="stroke:#000000;stroke-width:2;stroke-linecap:square"
       id="line682" />
    <line
       x1="780"
       y1="350"
       x2="790"
       y2="350"
       style="stroke:#000000;stroke-width:2;stroke-linecap:square"
       id="line684" />
    <line
       x1="780"
       y1="250"
       x2="790"
       y2="250"
       style="stroke:#000000;stroke-width:2;stroke-linecap:square"
       id="line686" />
    <line
       x1="790"
       y1="190"
       x2="910"
       y2="190"
       style="stroke:#000000;stroke-width:2;stroke-linecap:square"
       id="line688" />
    <line
       x1="790"
       y1="130"
       x2="790"
       y2="230"
       style="stroke:#000000;stroke-width:2;stroke-linecap:square"
       id="line690" />
    <line
       x1="430"
       y1="130"
       x2="430"
       y2="380"
       style="stroke:#000000;stroke-width:2;stroke-linecap:square"
       id="line692" />
    <line
       x1="220"
       y1="380"
       x2="320"
       y2="380"
       style="stroke:#000000;stroke-width:2;stroke-linecap:square"
       id="line694" />
    <line
       x1="320"
       y1="350"
       x2="320"
       y2="380"
       style="stroke:#000000;stroke-width:2;stroke-linecap:square"
       id="line696" />
    <line
       x1="400"
       y1="380"
       x2="430"
       y2="380"
       style="stroke:#000000;stroke-width:2;stroke-linecap:square"
       id="line698" />
    <line
       x1="320"
       y1="350"
       x2="640"
       y2="350"
       style="stroke:#000000;stroke-width:2;stroke-linecap:square"
       id="line700" />
    <line
       x1="320"
       y1="380"
       x2="350"
       y2="380"
       style="stroke:#000000;stroke-width:2;stroke-linecap:square"
       id="line702" />
    <line
       x1="350"
       y1="380"
       x2="355"
       y2="380"
       style="stroke:#000000;stroke-width:2;stroke-linecap:square"
       id="line704" />
    <line
       x1="395"
       y1="380"
       x2="400"
       y2="380"
       style="stroke:#000000;stroke-width:2;stroke-linecap:square"
       id="line706" />
    <path
       d="m 355,380 h 2 l 3,-7 6,14 6,-14 6,14 6,-14 6,14 3,-7 h 2"
       style="fill:#000000;fill-opacity:0;stroke:#000000;stroke-width:2;stroke-linecap:square"
       id="path708" />
    <text
       x="375"
       y="366"
       style="font-size:11px;font-family:Arial;text-anchor:middle"
       dominant-baseline="baseline"
       id="text710">3.3 kΩ</text>
    <line
       x1="220"
       y1="280"
       x2="320"
       y2="280"
       style="stroke:#000000;stroke-width:2;stroke-linecap:square"
       id="line712" />
    <line
       x1="320"
       y1="250"
       x2="320"
       y2="280"
       style="stroke:#000000;stroke-width:2;stroke-linecap:square"
       id="line714" />
    <line
       x1="400"
       y1="280"
       x2="430"
       y2="280"
       style="stroke:#000000;stroke-width:2;stroke-linecap:square"
       id="line716" />
    <line
       x1="320"
       y1="250"
       x2="660"
       y2="250"
       style="stroke:#000000;stroke-width:2;stroke-linecap:square"
       id="line718" />
    <line
       x1="320"
       y1="280"
       x2="350"
       y2="280"
       style="stroke:#000000;stroke-width:2;stroke-linecap:square"
       id="line720" />
    <line
       x1="350"
       y1="280"
       x2="355"
       y2="280"
       style="stroke:#000000;stroke-width:2;stroke-linecap:square"
       id="line722" />
    <line
       x1="395"
       y1="280"
       x2="400"
       y2="280"
       style="stroke:#000000;stroke-width:2;stroke-linecap:square"
       id="line724" />
    <path
       d="m 355,280 h 2 l 3,-7 6,14 6,-14 6,14 6,-14 6,14 3,-7 h 2"
       style="fill:#000000;fill-opacity:0;stroke:#000000;stroke-width:2;stroke-linecap:square"
       id="path726" />
    <text
       x="375"
       y="266"
       style="font-size:11px;font-family:Arial;text-anchor:middle"
       dominant-baseline="baseline"
       id="text728">3.3 kΩ</text>
    <line
       x1="220"
       y1="180"
       x2="320"
       y2="180"
       style="stroke:#000000;stroke-width:2;stroke-linecap:square"
       id="line730" />
    <line
       x1="320"
       y1="150"
       x2="320"
       y2="180"
       style="stroke:#000000;stroke-width:2;stroke-linecap:square"
       id="line732" />
    <path
       d="m 970,25 c -0.41874,0.0206 -0.96823,0.52856 -0.96823,0.52856 0,0 -0.65933,-0.37892 -1.01628,-0.36519 -0.35696,0.0137 -0.98025,0.5694 -0.98025,0.5694 0,0 -0.31061,-0.19873 -0.8529,-0.13694 -0.54229,0.0618 -0.67752,0.52135 -0.67752,0.52135 0,0 -1.23045,-0.11566 -1.52562,0.0697 -0.29518,0.18535 -0.81687,0.73519 -0.81687,0.73519 0,0 -1.02246,-0.26772 -1.43433,0.1922 -0.41187,0.45992 -0.0961,1.64576 -0.0961,1.64576 0,0 -0.47913,0.5718 -0.45167,0.95621 0.0274,0.38441 0.4661,1.01387 0.4661,1.01387 0,0 -0.35833,0.43967 -0.22104,0.82409 0.13728,0.38441 0.76882,1.04511 0.76882,1.04511 0,0 -0.16338,0.74101 0.0288,1.09797 0.19221,0.35694 0.79525,0.63186 0.79525,0.63186 0,0 -0.21829,0.41015 0.0288,0.87693 0.24712,0.46679 1.29017,1.15323 1.29017,1.15323 0,0 0.12974,0.58485 0.36999,0.8457 0.24026,0.26085 1.16044,0.45168 1.16044,0.45168 0,0 0.24128,0.77568 0.50213,0.91297 0.26085,0.13729 1.2205,0.47331 1.2205,0.47331 0,0 -2.48527,1.18892 -3.22663,2.67163 -0.74136,1.48273 -1.20848,5.02375 -1.20848,5.02375 0,0 -3.56917,2.80034 -3.59663,5.71087 -0.0274,2.91052 1.86678,5.90548 1.86678,5.90548 0,0 0.85222,4.7756 1.89562,6.20339 1.04339,1.42781 3.76068,3.81801 4.44713,3.87293 0.68644,0.0549 1.01593,0.93287 1.72983,1.23491 0.71391,0.30204 3.02242,1.34543 3.02242,1.34543 0,0 3.34298,2.57193 5.94392,2.68846 v 0.002 c 0.009,-2.8e-4 0.0176,-0.002 0.0265,-0.002 0.01,3.4e-4 0.0193,0.002 0.0288,0.002 v -0.002 c 2.60087,-0.11686 5.94392,-2.68846 5.94392,-2.68846 0,0 2.30611,-1.04339 3.02001,-1.34543 0.71391,-0.30204 1.0434,-1.18 1.72985,-1.23491 0.68644,-0.0549 3.40373,-2.44512 4.44712,-3.87293 1.0434,-1.42779 1.89562,-6.20339 1.89562,-6.20339 0,0 1.89424,-2.99496 1.86679,-5.90548 -0.0275,-2.91053 -3.59663,-5.71087 -3.59663,-5.71087 0,0 -0.46712,-3.54102 -1.20849,-5.02375 -0.74136,-1.48271 -3.22662,-2.67163 -3.22662,-2.67163 0,0 0.96204,-0.33602 1.2229,-0.47331 0.26084,-0.13729 0.49973,-0.91297 0.49973,-0.91297 0,0 0.92018,-0.19083 1.16043,-0.45168 0.24026,-0.26085 0.3724,-0.8457 0.3724,-0.8457 0,0 1.04305,-0.68644 1.29016,-1.15323 0.24712,-0.46678 0.0265,-0.87693 0.0265,-0.87693 0,0 0.60545,-0.27492 0.79765,-0.63186 0.19221,-0.35696 0.0265,-1.09797 0.0265,-1.09797 0,0 0.63153,-0.6607 0.76883,-1.04511 0.13729,-0.38442 -0.21864,-0.82409 -0.21864,-0.82409 0,0 0.43864,-0.62946 0.4661,-1.01387 0.0274,-0.38441 -0.45409,-0.95621 -0.45409,-0.95621 0,0 0.31577,-1.18584 -0.0961,-1.64576 -0.41186,-0.45992 -1.43432,-0.1922 -1.43432,-0.1922 0,0 -0.5217,-0.54984 -0.81687,-0.73519 -0.29517,-0.18533 -1.52322,-0.0697 -1.52322,-0.0697 0,0 -0.13763,-0.45957 -0.67992,-0.52135 -0.5423,-0.0618 -0.85051,0.13694 -0.85051,0.13694 0,0 -0.62569,-0.55567 -0.98264,-0.5694 -0.35696,-0.0137 -1.01628,0.36519 -1.01628,0.36519 0,0 -0.54951,-0.50797 -0.96823,-0.52856 -0.41873,-0.0206 -1.06193,0.65108 -1.06193,0.65108 0,0 -0.23545,-0.28898 -0.76402,-0.25467 -0.52856,0.0344 -1.00907,0.49493 -1.00907,0.49493 0,0 -0.54881,-0.12939 -1.19406,-0.0745 -0.64526,0.0549 -1.05542,0.87694 -1.16524,0.87694 -0.65899,-0.10983 -1.15323,0.53748 -1.82595,1.10037 -0.58562,0.49001 -1.29382,2.39083 -1.46796,2.87586 -0.17378,-0.48409 -0.8845,-2.38565 -1.47037,-2.87586 -0.67271,-0.56289 -1.16695,-1.2102 -1.82593,-1.10037 -0.10984,0 -0.52239,-0.82202 -1.16765,-0.87694 -0.64525,-0.0549 -1.19406,0.0745 -1.19406,0.0745 0,0 -0.48051,-0.4606 -1.00908,-0.49493 -0.52856,-0.0343 -0.76161,0.25467 -0.76161,0.25467 0,0 -0.6456,-0.67168 -1.06433,-0.65108 z m -2.03963,1.36224 c 0.38831,-0.0389 2.17672,0.93219 2.17672,0.93219 0,0 -0.44721,-0.9516 -0.17539,-0.93219 0.27182,0.0194 1.72743,1.18447 1.72743,1.18447 0,0 -0.15429,-1.06792 0.13695,-0.95142 0.29123,0.11649 1.45595,1.37907 1.45595,1.37907 0,0 0.0971,-0.95181 0.23305,-0.91297 0.1359,0.0388 1.45594,1.65055 1.45594,1.65055 0,0 -0.2539,-1.04843 0.38681,-0.71836 0.64072,0.33006 1.92347,2.56258 2.02055,4.3294 0.0971,1.76682 -1.55445,2.4458 -1.55445,2.4458 0,0 -4.81498,-3.56049 -9.10568,-4.94926 2.35419,0.85621 8.13648,5.24217 8.23355,5.97996 0.0971,0.73779 -1.496,1.86392 -2.29203,2.38814 -0.79604,0.52422 -3.92097,0.44688 -3.92097,0.44688 0,0 1.84466,-0.64188 0.69914,-0.60305 -1.14552,0.0389 -2.4482,-0.50454 -2.4482,-0.50454 0,0 0.66109,-0.11636 0.62226,-0.25226 -0.0389,-0.13591 -2.36892,-1.08836 -2.36892,-1.08836 0,0 1.0481,0.0592 0.98985,-0.0961 -0.0583,-0.15532 -2.17431,-1.47517 -2.17431,-1.47517 0,0 0.93116,0.0955 0.79524,-0.0793 -0.13591,-0.17473 -1.55204,-1.4151 -1.55204,-1.4151 0,0 0.73797,0.13429 0.69914,-0.0793 -0.0389,-0.21357 -1.3214,-1.59049 -1.3214,-1.59049 0,0 1.06913,0.15494 1.06913,0.0385 0,-0.11648 -1.3214,-1.66977 -1.3214,-1.66977 0,0 0.87413,0.33026 0.91297,-0.0192 0.0389,-0.34947 -0.73759,-1.78749 -0.73759,-1.78749 l 2.11665,-0.0385 c 0,0 -0.75655,-0.46694 -0.54297,-0.62226 0.21357,-0.15533 2.58034,0.1946 2.58034,0.1946 0,0 -0.63999,-0.71738 -0.30994,-0.81446 0.33007,-0.0971 2.02056,0.60064 2.02056,0.60064 0,0 -0.89525,-0.93181 -0.50694,-0.97064 z m 19.02343,10e-6 c 0.27181,-0.0194 -0.17539,0.93219 -0.17539,0.93219 0,0 1.786,-0.97102 2.17432,-0.93219 0.38831,0.0389 -0.50454,0.97063 -0.50454,0.97063 0,0 1.68807,-0.69771 2.01814,-0.60064 0.33007,0.0971 -0.30993,0.81448 -0.30993,0.81448 0,0 2.36917,-0.34994 2.58274,-0.19462 0.21358,0.15533 -0.54537,0.62227 -0.54537,0.62227 l 2.11665,0.0385 c 0,0 -0.77642,1.43801 -0.73758,1.78749 0.0388,0.34949 0.91297,0.0192 0.91297,0.0192 0,0 -1.31901,1.55328 -1.31901,1.66978 0,0.11649 1.06674,-0.0385 1.06674,-0.0385 0,0 -1.28258,1.37692 -1.3214,1.59049 -0.0389,0.21357 0.69914,0.0793 0.69914,0.0793 0,0 -1.41614,1.24036 -1.55206,1.41511 -0.1359,0.17474 0.79525,0.0793 0.79525,0.0793 0,0 -2.11606,1.31984 -2.17431,1.47517 -0.0583,0.15532 0.98985,0.0961 0.98985,0.0961 0,0 -2.33009,0.95245 -2.36892,1.08835 -0.0389,0.13592 0.62226,0.25228 0.62226,0.25228 0,0 -1.30028,0.54336 -2.44579,0.50453 -1.14553,-0.0389 0.69914,0.60304 0.69914,0.60304 0,0 -3.12734,0.0773 -3.92337,-0.44687 -0.79604,-0.52422 -2.38672,-1.65035 -2.28964,-2.38814 0.0971,-0.73779 5.87697,-5.12375 8.23116,-5.97996 -4.2907,1.38878 -9.10569,4.94927 -9.10569,4.94927 0,0 -1.65153,-0.67899 -1.55445,-2.44581 0.0971,-1.76681 1.37983,-3.99934 2.02055,-4.3294 0.64071,-0.33007 0.38921,0.71836 0.38921,0.71836 0,0 1.32004,-1.61172 1.45595,-1.65056 0.13591,-0.0388 0.23305,0.91298 0.23305,0.91298 0,0 1.16471,-1.26257 1.45594,-1.37906 0.29124,-0.1165 0.13454,0.9514 0.13454,0.9514 0,0 1.45803,-1.16504 1.72985,-1.18446 z m -8.53388,12.16655 c 2.75994,0 4.99732,1.42671 4.99732,3.18579 0,1.75908 -2.23738,3.18578 -4.99732,3.18578 -2.75994,0 -4.99731,-1.4267 -4.99731,-3.18578 0,-1.75908 2.23737,-3.18579 4.99731,-3.18579 z m -7.29175,1.26855 c 0.5561,-6.8e-4 0.97621,0.0809 1.12679,0.25467 0.53543,0.6178 -3.13052,3.58461 -3.13052,3.58461 0,0 -3.95392,3.17069 -4.5168,2.77255 -0.56289,-0.39814 0.57866,-3.65223 1.86918,-5.05257 0.92756,-1.0065 3.2302,-1.55744 4.65135,-1.55926 z m 14.23994,0 c 1.42114,0.002 3.72379,0.55276 4.65134,1.55926 1.29052,1.40034 2.43208,4.65443 1.8692,5.05257 -0.56289,0.39814 -4.51681,-2.77255 -4.51681,-2.77255 0,0 -3.66595,-2.96681 -3.13053,-3.58461 0.15059,-0.17376 0.5707,-0.25538 1.1268,-0.25467 z m -1.38388,4.83154 c 0.0404,1e-4 0.082,0.002 0.12254,0.002 1.94609,0.0454 3.94109,1.38247 4.9853,3.55578 1.39228,2.89776 0.57013,6.18395 -1.83555,7.3398 -2.40568,1.15586 -5.48383,-0.25439 -6.87611,-3.15215 -1.39228,-2.89775 -0.57254,-6.18395 1.83315,-7.3398 0.52624,-0.25285 1.08466,-0.38497 1.65055,-0.40363 0.0404,-0.002 0.0797,-0.002 0.12012,-0.002 z m -11.25116,0.55258 c 0.64871,-0.0151 1.2918,0.11227 1.89322,0.40123 2.40568,1.15585 3.22543,4.44205 1.83315,7.33981 -1.39228,2.89775 -4.47043,4.3104 -6.87611,3.15455 -2.40569,-1.15585 -3.22784,-4.44205 -1.83555,-7.33981 1.0442,-2.17331 3.03921,-3.51042 4.98529,-3.55578 z m -8.74289,3.19299 c 1.20312,0.0129 1.04889,3.0667 0.92018,4.81713 -0.13729,1.86713 -1.56372,4.22918 -2.27762,4.33902 -0.71391,0.10983 -1.6485,-2.22374 -1.70341,-4.94206 -0.0549,-2.71831 2.80137,-4.17564 2.80137,-4.17564 0.0927,-0.0274 0.17927,-0.0393 0.25948,-0.0385 z m 28.54475,-5e-5 c 0.0802,-8.2e-4 0.16681,0.011 0.25948,0.0385 0,0 2.85629,1.45733 2.80137,4.17565 -0.0549,2.71832 -0.98951,5.05188 -1.7034,4.94206 -0.7139,-0.10984 -2.14274,-2.47189 -2.28003,-4.33902 -0.12871,-1.75044 -0.28054,-4.80425 0.92258,-4.81713 z m -14.17027,6.73923 c 3.03291,0 5.49225,2.45935 5.49225,5.49224 0,3.03291 -2.45934,5.48985 -5.49225,5.48985 -3.0329,0 -5.49224,-2.45694 -5.49224,-5.48985 0,-3.03289 2.45934,-5.49224 5.49224,-5.49224 z m 11.97193,2.77015 c 0.99886,-0.0184 1.67699,0.47571 1.67699,0.47571 0.9061,0.68644 0.57626,3.40304 -0.0553,5.10542 -0.63152,1.70239 -2.38916,2.55392 -2.93832,3.13054 -0.54916,0.57661 -3.51494,0.71527 -4.09155,0.0288 -0.57661,-0.68645 -0.30066,-2.8841 0.0288,-3.81766 0.32949,-0.93357 0.85188,-1.83967 2.99359,-3.84409 0.87007,-0.8143 1.70231,-1.06612 2.38573,-1.07875 z m -24.24423,0.07687 c 0.68342,0.0127 1.51806,0.26445 2.38813,1.07874 2.14171,2.00442 2.66409,2.91053 2.99358,3.84409 0.3295,0.93356 0.60305,3.13122 0.0265,3.81766 -0.57662,0.68644 -3.54239,0.54778 -4.09155,-0.0288 -0.54916,-0.57662 -2.3068,-1.42575 -2.93833,-3.12813 -0.63153,-1.70239 -0.96136,-4.42139 -0.0552,-5.10783 0,0 0.67813,-0.49416 1.67698,-0.47571 z m 12.16183,9.09609 c 0,0 5.4109,0.27457 5.27361,1.72984 -0.13729,1.45526 -3.37696,3.37902 -4.74985,3.35157 -1.37288,-0.0274 -5.68445,-1.09866 -5.68445,-2.93833 0,-1.83967 5.16069,-2.14308 5.16069,-2.14308"
       style="fill:#000000;fill-opacity:0;stroke:#000000;stroke-width:1;stroke-linecap:square"
       id="path734" />
    <rect
       x="915"
       y="20"
       width="120"
       height="400"
       style="fill:#000000;fill-opacity:0;stroke:#000000;stroke-width:2"
       id="rect736" />
    <line
       x1="910"
       y1="30"
       x2="915"
       y2="30"
       style="stroke:#000000;stroke-width:2;stroke-linecap:square"
       id="line738" />
    <line
       x1="910"
       y1="50"
       x2="915"
       y2="50"
       style="stroke:#000000;stroke-width:2;stroke-linecap:square"
       id="line740" />
    <line
       x1="910"
       y1="70"
       x2="915"
       y2="70"
       style="stroke:#000000;stroke-width:2;stroke-linecap:square"
       id="line742" />
    <line
       x1="910"
       y1="90"
       x2="915"
       y2="90"
       style="stroke:#000000;stroke-width:2;stroke-linecap:square"
       id="line744" />
    <line
       x1="910"
       y1="110"
       x2="915"
       y2="110"
       style="stroke:#000000;stroke-width:2;stroke-linecap:square"
       id="line746" />
    <line
       x1="910"
       y1="130"
       x2="915"
       y2="130"
       style="stroke:#000000;stroke-width:2;stroke-linecap:square"
       id="line748" />
    <line
       x1="910"
       y1="150"
       x2="915"
       y2="150"
       style="stroke:#000000;stroke-width:2;stroke-linecap:square"
       id="line750" />
    <line
       x1="910"
       y1="170"
       x2="915"
       y2="170"
       style="stroke:#000000;stroke-width:2;stroke-linecap:square"
       id="line752" />
    <line
       x1="910"
       y1="190"
       x2="915"
       y2="190"
       style="stroke:#000000;stroke-width:2;stroke-linecap:square"
       id="line754" />
    <line
       x1="910"
       y1="210"
       x2="915"
       y2="210"
       style="stroke:#000000;stroke-width:2;stroke-linecap:square"
       id="line756" />
    <line
       x1="910"
       y1="230"
       x2="915"
       y2="230"
       style="stroke:#000000;stroke-width:2;stroke-linecap:square"
       id="line758" />
    <line
       x1="910"
       y1="250"
       x2="915"
       y2="250"
       style="stroke:#000000;stroke-width:2;stroke-linecap:square"
       id="line760" />
    <line
       x1="910"
       y1="270"
       x2="915"
       y2="270"
       style="stroke:#000000;stroke-width:2;stroke-linecap:square"
       id="line762" />
    <line
       x1="910"
       y1="210"
       x2="915"
       y2="210"
       style="stroke:#000000;stroke-width:2;stroke-linecap:square"
       id="line764" />
    <line
       x1="910"
       y1="230"
       x2="915"
       y2="230"
       style="stroke:#000000;stroke-width:2;stroke-linecap:square"
       id="line766" />
    <line
       x1="910"
       y1="250"
       x2="915"
       y2="250"
       style="stroke:#000000;stroke-width:2;stroke-linecap:square"
       id="line768" />
    <line
       x1="910"
       y1="270"
       x2="915"
       y2="270"
       style="stroke:#000000;stroke-width:2;stroke-linecap:square"
       id="line770" />
    <line
       x1="910"
       y1="290"
       x2="915"
       y2="290"
       style="stroke:#000000;stroke-width:2;stroke-linecap:square"
       id="line772" />
    <line
       x1="910"
       y1="310"
       x2="915"
       y2="310"
       style="stroke:#000000;stroke-width:2;stroke-linecap:square"
       id="line774" />
    <line
       x1="910"
       y1="330"
       x2="915"
       y2="330"
       style="stroke:#000000;stroke-width:2;stroke-linecap:square"
       id="line776" />
    <line
       x1="910"
       y1="350"
       x2="915"
       y2="350"
       style="stroke:#000000;stroke-width:2;stroke-linecap:square"
       id="line778" />
    <line
       x1="910"
       y1="370"
       x2="915"
       y2="370"
       style="stroke:#000000;stroke-width:2;stroke-linecap:square"
       id="line780" />
    <line
       x1="910"
       y1="390"
       x2="915"
       y2="390"
       style="stroke:#000000;stroke-width:2;stroke-linecap:square"
       id="line782" />
    <line
       x1="910"
       y1="410"
       x2="915"
       y2="410"
       style="stroke:#000000;stroke-width:2;stroke-linecap:square"
       id="line784" />
    <line
       x1="1035"
       y1="30"
       x2="1040"
       y2="30"
       style="stroke:#000000;stroke-width:2;stroke-linecap:square"
       id="line786" />
    <line
       x1="1035"
       y1="50"
       x2="1040"
       y2="50"
       style="stroke:#000000;stroke-width:2;stroke-linecap:square"
       id="line788" />
    <line
       x1="1035"
       y1="70"
       x2="1040"
       y2="70"
       style="stroke:#000000;stroke-width:2;stroke-linecap:square"
       id="line790" />
    <line
       x1="1035"
       y1="90"
       x2="1040"
       y2="90"
       style="stroke:#000000;stroke-width:2;stroke-linecap:square"
       id="line792" />
    <line
       x1="1035"
       y1="110"
       x2="1040"
       y2="110"
       style="stroke:#000000;stroke-width:2;stroke-linecap:square"
       id="line794" />
    <line
       x1="1035"
       y1="130"
       x2="1040"
       y2="130"
       style="stroke:#000000;stroke-width:2;stroke-linecap:square"
       id="line796" />
    <line
       x1="1035"
       y1="150"
       x2="1040"
       y2="150"
       style="stroke:#000000;stroke-width:2;stroke-linecap:square"
       id="line798" />
    <line
       x1="1035"
       y1="170"
       x2="1040"
       y2="170"
       style="stroke:#000000;stroke-width:2;stroke-linecap:square"
       id="line800" />
    <line
       x1="1035"
       y1="190"
       x2="1040"
       y2="190"
       style="stroke:#000000;stroke-width:2;stroke-linecap:square"
       id="line802" />
    <line
       x1="1035"
       y1="210"
       x2="1040"
       y2="210"
       style="stroke:#000000;stroke-width:2;stroke-linecap:square"
       id="line804" />
    <line
       x1="1035"
       y1="230"
       x2="1040"
       y2="230"
       style="stroke:#000000;stroke-width:2;stroke-linecap:square"
       id="line806" />
    <line
       x1="1035"
       y1="250"
       x2="1040"
       y2="250"
       style="stroke:#000000;stroke-width:2;stroke-linecap:square"
       id="line808" />
    <line
       x1="1035"
       y1="270"
       x2="1040"
       y2="270"
       style="stroke:#000000;stroke-width:2;stroke-linecap:square"
       id="line810" />
    <line
       x1="1035"
       y1="290"
       x2="1040"
       y2="290"
       style="stroke:#000000;stroke-width:2;stroke-linecap:square"
       id="line812" />
    <line
       x1="1035"
       y1="310"
       x2="1040"
       y2="310"
       style="stroke:#000000;stroke-width:2;stroke-linecap:square"
       id="line814" />
    <line
       x1="1035"
       y1="330"
       x2="1040"
       y2="330"
       style="stroke:#000000;stroke-width:2;stroke-linecap:square"
       id="line816" />
    <line
       x1="1035"
       y1="350"
       x2="1040"
       y2="350"
       style="stroke:#000000;stroke-width:2;stroke-linecap:square"
       id="line818" />
    <line
       x1="1035"
       y1="370"
       x2="1040"
       y2="370"
       style="stroke:#000000;stroke-width:2;stroke-linecap:square"
       id="line820" />
    <line
       x1="1035"
       y1="390"
       x2="1040"
       y2="390"
       style="stroke:#000000;stroke-width:2;stroke-linecap:square"
       id="line822" />
    <line
       x1="1035"
       y1="410"
       x2="1040"
       y2="410"
       style="stroke:#000000;stroke-width:2;stroke-linecap:square"
       id="line824" />
    <text
       x="917"
       y="30"
       style="font-size:11px;font-family:Arial;text-anchor:start"
       dominant-baseline="middle"
       id="text826">3V3</text>
    <text
       x="917"
       y="50"
       style="font-size:11px;font-family:Arial;text-anchor:start"
       dominant-baseline="middle"
       id="text828">GPIO2</text>
    <text
       x="917"
       y="70"
       style="font-size:11px;font-family:Arial;text-anchor:start"
       dominant-baseline="middle"
       id="text830">GPIO3</text>
    <text
       x="917"
       y="90"
       style="font-size:11px;font-family:Arial;text-anchor:start"
       dominant-baseline="middle"
       id="text832">GPIO4</text>
    <text
       x="917"
       y="110"
       style="font-size:11px;font-family:Arial;text-anchor:start"
       dominant-baseline="middle"
       id="text834">GND</text>
    <text
       x="917"
       y="130"
       style="font-size:11px;font-family:Arial;text-anchor:start"
       dominant-baseline="middle"
       id="text836">GPIO17</text>
    <text
       x="917"
       y="150"
       style="font-size:11px;font-family:Arial;text-anchor:start"
       dominant-baseline="middle"
       id="text838">GPIO27</text>
    <text
       x="917"
       y="170"
       style="font-size:11px;font-family:Arial;text-anchor:start"
       dominant-baseline="middle"
       id="text840">GPIO22</text>
    <text
       x="917"
       y="190"
       style="font-size:11px;font-family:Arial;text-anchor:start"
       dominant-baseline="middle"
       id="text842">3V3</text>
    <text
       x="917"
       y="210"
       style="font-size:11px;font-family:Arial;text-anchor:start"
       dominant-baseline="middle"
       id="text844">GPIO10</text>
    <text
       x="917"
       y="230"
       style="font-size:11px;font-family:Arial;text-anchor:start"
       dominant-baseline="middle"
       id="text846">GPIO9</text>
    <text
       x="917"
       y="250"
       style="font-size:11px;font-family:Arial;text-anchor:start"
       dominant-baseline="middle"
       id="text848">GPIO11</text>
    <text
       x="917"
       y="270"
       style="font-size:11px;font-family:Arial;text-anchor:start"
       dominant-baseline="middle"
       id="text850">GND</text>
    <text
       x="917"
       y="290"
       style="font-size:11px;font-family:Arial;text-anchor:start"
       dominant-baseline="middle"
       id="text852">ID_SD</text>
    <text
       x="917"
       y="310"
       style="font-size:11px;font-family:Arial;text-anchor:start"
       dominant-baseline="middle"
       id="text854">GPIO5</text>
    <text
       x="917"
       y="330"
       style="font-size:11px;font-family:Arial;text-anchor:start"
       dominant-baseline="middle"
       id="text856">GPIO6</text>
    <text
       x="917"
       y="350"
       style="font-size:11px;font-family:Arial;text-anchor:start"
       dominant-baseline="middle"
       id="text858">GPIO13</text>
    <text
       x="917"
       y="370"
       style="font-size:11px;font-family:Arial;text-anchor:start"
       dominant-baseline="middle"
       id="text860">GPIO19</text>
    <text
       x="917"
       y="390"
       style="font-size:11px;font-family:Arial;text-anchor:start"
       dominant-baseline="middle"
       id="text862">GPIO26</text>
    <text
       x="917"
       y="410"
       style="font-size:11px;font-family:Arial;text-anchor:start"
       dominant-baseline="middle"
       id="text864">GND</text>
    <text
       x="1033"
       y="30"
       style="font-size:11px;font-family:Arial;text-anchor:end"
       dominant-baseline="middle"
       id="text866">5V0</text>
    <text
       x="1033"
       y="50"
       style="font-size:11px;font-family:Arial;text-anchor:end"
       dominant-baseline="middle"
       id="text868">5V0</text>
    <text
       x="1033"
       y="70"
       style="font-size:11px;font-family:Arial;text-anchor:end"
       dominant-baseline="middle"
       id="text870">GND</text>
    <text
       x="1033"
       y="90"
       style="font-size:11px;font-family:Arial;text-anchor:end"
       dominant-baseline="middle"
       id="text872">GPIO14</text>
    <text
       x="1033"
       y="110"
       style="font-size:11px;font-family:Arial;text-anchor:end"
       dominant-baseline="middle"
       id="text874">GPIO15</text>
    <text
       x="1033"
       y="130"
       style="font-size:11px;font-family:Arial;text-anchor:end"
       dominant-baseline="middle"
       id="text876">GPIO18</text>
    <text
       x="1033"
       y="150"
       style="font-size:11px;font-family:Arial;text-anchor:end"
       dominant-baseline="middle"
       id="text878">GND</text>
    <text
       x="1033"
       y="170"
       style="font-size:11px;font-family:Arial;text-anchor:end"
       dominant-baseline="middle"
       id="text880">GPIO23</text>
    <text
       x="1033"
       y="190"
       style="font-size:11px;font-family:Arial;text-anchor:end"
       dominant-baseline="middle"
       id="text882">GPIO24</text>
    <text
       x="1033"
       y="210"
       style="font-size:11px;font-family:Arial;text-anchor:end"
       dominant-baseline="middle"
       id="text884">GND</text>
    <text
       x="1033"
       y="230"
       style="font-size:11px;font-family:Arial;text-anchor:end"
       dominant-baseline="middle"
       id="text886">GPIO25</text>
    <text
       x="1033"
       y="250"
       style="font-size:11px;font-family:Arial;text-anchor:end"
       dominant-baseline="middle"
       id="text888">GPIO8</text>
    <text
       x="1033"
       y="270"
       style="font-size:11px;font-family:Arial;text-anchor:end"
       dominant-baseline="middle"
       id="text890">GPIO7</text>
    <text
       x="1033"
       y="290"
       style="font-size:11px;font-family:Arial;text-anchor:end"
       dominant-baseline="middle"
       id="text892">ID_SC</text>
    <text
       x="1033"
       y="310"
       style="font-size:11px;font-family:Arial;text-anchor:end"
       dominant-baseline="middle"
       id="text894">GND</text>
    <text
       x="1033"
       y="330"
       style="font-size:11px;font-family:Arial;text-anchor:end"
       dominant-baseline="middle"
       id="text896">GPIO12</text>
    <text
       x="1033"
       y="350"
       style="font-size:11px;font-family:Arial;text-anchor:end"
       dominant-baseline="middle"
       id="text898">GND</text>
    <text
       x="1033"
       y="370"
       style="font-size:11px;font-family:Arial;text-anchor:end"
       dominant-baseline="middle"
       id="text900">GPIO16</text>
    <text
       x="1033"
       y="390"
       style="font-size:11px;font-family:Arial;text-anchor:end"
       dominant-baseline="middle"
       id="text902">GPIO20</text>
    <text
       x="1033"
       y="410"
       style="font-size:11px;font-family:Arial;text-anchor:end"
       dominant-baseline="middle"
       id="text904">GPIO21</text>
    <rect
       x="670"
       y="200"
       width="100"
       height="160"
       style="fill:#000000;fill-opacity:0;stroke:#000000;stroke-width:2"
       id="rect906" />
    <line
       x1="660"
       y1="210"
       x2="670"
       y2="210"
       style="stroke:#000000;stroke-width:2;stroke-linecap:square"
       id="line908" />
    <line
       x1="660"
       y1="230"
       x2="670"
       y2="230"
       style="stroke:#000000;stroke-width:2;stroke-linecap:square"
       id="line910" />
    <line
       x1="770"
       y1="210"
       x2="780"
       y2="210"
       style="stroke:#000000;stroke-width:2;stroke-linecap:square"
       id="line912" />
    <line
       x1="770"
       y1="230"
       x2="780"
       y2="230"
       style="stroke:#000000;stroke-width:2;stroke-linecap:square"
       id="line914" />
    <text
       x="674"
       y="210"
       style="font-size:12px;font-family:Arial;text-anchor:start"
       dominant-baseline="middle"
       id="text916">CH0</text>
    <text
       x="674"
       y="230"
       style="font-size:12px;font-family:Arial;text-anchor:start"
       dominant-baseline="middle"
       id="text918">CH1</text>
    <text
       x="766"
       y="210"
       style="font-size:12px;font-family:Arial;text-anchor:end"
       dominant-baseline="middle"
       id="text920">V_DD</text>
    <text
       x="766"
       y="230"
       style="font-size:12px;font-family:Arial;text-anchor:end"
       dominant-baseline="middle"
       id="text922">V_REF</text>
    <line
       x1="660"
       y1="250"
       x2="670"
       y2="250"
       style="stroke:#000000;stroke-width:2;stroke-linecap:square"
       id="line924" />
    <line
       x1="770"
       y1="250"
       x2="780"
       y2="250"
       style="stroke:#000000;stroke-width:2;stroke-linecap:square"
       id="line926" />
    <text
       x="674"
       y="250"
       style="font-size:12px;font-family:Arial;text-anchor:start"
       dominant-baseline="middle"
       id="text928">CH2</text>
    <text
       x="766"
       y="250"
       style="font-size:12px;font-family:Arial;text-anchor:end"
       dominant-baseline="middle"
       id="text930">AGND</text>
    <line
       x1="660"
       y1="270"
       x2="670"
       y2="270"
       style="stroke:#000000;stroke-width:2;stroke-linecap:square"
       id="line932" />
    <line
       x1="770"
       y1="270"
       x2="780"
       y2="270"
       style="stroke:#000000;stroke-width:2;stroke-linecap:square"
       id="line934" />
    <text
       x="674"
       y="270"
       style="font-size:12px;font-family:Arial;text-anchor:start"
       dominant-baseline="middle"
       id="text936">CH3</text>
    <text
       x="766"
       y="270"
       style="font-size:12px;font-family:Arial;text-anchor:end"
       dominant-baseline="middle"
       id="text938">CLK</text>
    <line
       x1="660"
       y1="290"
       x2="670"
       y2="290"
       style="stroke:#000000;stroke-width:2;stroke-linecap:square"
       id="line940" />
    <line
       x1="770"
       y1="290"
       x2="780"
       y2="290"
       style="stroke:#000000;stroke-width:2;stroke-linecap:square"
       id="line942" />
    <text
       x="674"
       y="290"
       style="font-size:12px;font-family:Arial;text-anchor:start"
       dominant-baseline="middle"
       id="text944">CH4</text>
    <text
       x="766"
       y="290"
       style="font-size:12px;font-family:Arial;text-anchor:end"
       dominant-baseline="middle"
       id="text946">D_OUT</text>
    <line
       x1="660"
       y1="310"
       x2="670"
       y2="310"
       style="stroke:#000000;stroke-width:2;stroke-linecap:square"
       id="line948" />
    <line
       x1="770"
       y1="310"
       x2="780"
       y2="310"
       style="stroke:#000000;stroke-width:2;stroke-linecap:square"
       id="line950" />
    <text
       x="674"
       y="310"
       style="font-size:12px;font-family:Arial;text-anchor:start"
       dominant-baseline="middle"
       id="text952">CH5</text>
    <text
       x="766"
       y="310"
       style="font-size:12px;font-family:Arial;text-anchor:end"
       dominant-baseline="middle"
       id="text954">D_IN</text>
    <line
       x1="660"
       y1="330"
       x2="670"
       y2="330"
       style="stroke:#000000;stroke-width:2;stroke-linecap:square"
       id="line956" />
    <line
       x1="770"
       y1="330"
       x2="780"
       y2="330"
       style="stroke:#000000;stroke-width:2;stroke-linecap:square"
       id="line958" />
    <text
       x="674"
       y="330"
       style="font-size:12px;font-family:Arial;text-anchor:start"
       dominant-baseline="middle"
       id="text960">CH6</text>
    <text
       x="766"
       y="330"
       style="font-size:12px;font-family:Arial;text-anchor:end"
       dominant-baseline="middle"
       id="text962">CD/SHDN</text>
    <line
       x1="660"
       y1="350"
       x2="670"
       y2="350"
       style="stroke:#000000;stroke-width:2;stroke-linecap:square"
       id="line964" />
    <line
       x1="770"
       y1="350"
       x2="780"
       y2="350"
       style="stroke:#000000;stroke-width:2;stroke-linecap:square"
       id="line966" />
    <text
       x="674"
       y="350"
       style="font-size:12px;font-family:Arial;text-anchor:start"
       dominant-baseline="middle"
       id="text968">CH7</text>
    <text
       x="766"
       y="350"
       style="font-size:12px;font-family:Arial;text-anchor:end"
       dominant-baseline="middle"
       id="text970">DGND</text>
    <line
       x1="400"
       y1="180"
       x2="430"
       y2="180"
       style="stroke:#000000;stroke-width:2;stroke-linecap:square"
       id="line972" />
    <line
       x1="320"
       y1="150"
       x2="640"
       y2="150"
       style="stroke:#000000;stroke-width:2;stroke-linecap:square"
       id="line974" />
    <line
       x1="320"
       y1="180"
       x2="350"
       y2="180"
       style="stroke:#000000;stroke-width:2;stroke-linecap:square"
       id="line976" />
    <line
       x1="350"
       y1="180"
       x2="355"
       y2="180"
       style="stroke:#000000;stroke-width:2;stroke-linecap:square"
       id="line978" />
    <line
       x1="395"
       y1="180"
       x2="400"
       y2="180"
       style="stroke:#000000;stroke-width:2;stroke-linecap:square"
       id="line980" />
    <path
       d="m 355,180 h 2 l 3,-7 6,14 6,-14 6,14 6,-14 6,14 3,-7 h 2"
       style="fill:#000000;fill-opacity:0;stroke:#000000;stroke-width:2;stroke-linecap:square"
       id="path982" />
    <text
       x="375"
       y="166"
       style="font-size:11px;font-family:Arial;text-anchor:middle"
       dominant-baseline="baseline"
       id="text984">3.3 kΩ</text>
    <line
       x1="220"
       y1="180"
       x2="220"
       y2="185"
       style="stroke:#000000;stroke-width:2;stroke-linecap:square"
       id="line986" />
    <line
       x1="220"
       y1="225"
       x2="220"
       y2="230"
       style="stroke:#000000;stroke-width:2;stroke-linecap:square"
       id="line988" />
    <path
       d="m 220,185 v 2 l -7,3 14,6 -14,6 14,6 -14,6 14,6 -7,3 v 2"
       style="fill:#000000;fill-opacity:0;stroke:#000000;stroke-width:2;stroke-linecap:square"
       id="path990" />
    <text
       x="196"
       y="205"
       style="font-size:11px;font-family:Arial;text-anchor:end"
       dominant-baseline="middle"
       id="text992">Flex Sensor 1 (~25 - 100 kΩ)</text>
    <path
       d="m 220,205 m -17,7 34,-14 m -2,5 2,-5 -5,-2"
       style="fill:#000000;fill-opacity:0;stroke:#000000;stroke-width:2;stroke-linecap:square"
       id="path994" />
    <line
       x1="220"
       y1="380"
       x2="220"
       y2="385"
       style="stroke:#000000;stroke-width:2;stroke-linecap:square"
       id="line996" />
    <line
       x1="220"
       y1="425"
       x2="220"
       y2="430"
       style="stroke:#000000;stroke-width:2;stroke-linecap:square"
       id="line998" />
    <path
       d="m 220,385 v 2 l -7,3 14,6 -14,6 14,6 -14,6 14,6 -7,3 v 2"
       style="fill:#000000;fill-opacity:0;stroke:#000000;stroke-width:2;stroke-linecap:square"
       id="path1000" />
    <text
       x="196"
       y="405"
       style="font-size:11px;font-family:Arial;text-anchor:end"
       dominant-baseline="middle"
       id="text1002">Flex Sensor 3 (~25 - 100 kΩ)</text>
    <path
       d="m 220,405 m -17,7 34,-14 m -2,5 2,-5 -5,-2"
       style="fill:#000000;fill-opacity:0;stroke:#000000;stroke-width:2;stroke-linecap:square"
       id="path1004" />
    <line
       x1="220"
       y1="280"
       x2="220"
       y2="285"
       style="stroke:#000000;stroke-width:2;stroke-linecap:square"
       id="line1006" />
    <line
       x1="220"
       y1="325"
       x2="220"
       y2="330"
       style="stroke:#000000;stroke-width:2;stroke-linecap:square"
       id="line1008" />
    <path
       d="m 220,285 v 2 l -7,3 14,6 -14,6 14,6 -14,6 14,6 -7,3 v 2"
       style="fill:#000000;fill-opacity:0;stroke:#000000;stroke-width:2;stroke-linecap:square"
       id="path1010" />
    <text
       x="196"
       y="305"
       style="font-size:11px;font-family:Arial;text-anchor:end"
       dominant-baseline="middle"
       id="text1012">Flex Sensor 2 (~25 - 100 kΩ)</text>
    <path
       d="m 220,305 m -17,7 34,-14 m -2,5 2,-5 -5,-2"
       style="fill:#000000;fill-opacity:0;stroke:#000000;stroke-width:2;stroke-linecap:square"
       id="path1014" />
    <circle
       cx="260"
       cy="330"
       style="fill:#000000;fill-opacity:1;stroke:#000000;stroke-width:2"
       id="ellipse1016"
       r="2" />
    <circle
       cx="260"
       cy="430"
       style="fill:#000000;fill-opacity:1;stroke:#000000;stroke-width:2"
       id="ellipse1018"
       r="2" />
    <circle
       cx="790"
       cy="210"
       style="fill:#000000;fill-opacity:1;stroke:#000000;stroke-width:2"
       id="ellipse1020"
       r="2" />
    <circle
       cx="790"
       cy="350"
       style="fill:#000000;fill-opacity:1;stroke:#000000;stroke-width:2"
       id="ellipse1022"
       r="2" />
    <circle
       cx="790"
       cy="190"
       style="fill:#000000;fill-opacity:1;stroke:#000000;stroke-width:2"
       id="ellipse1024"
       r="2" />
    <circle
       cx="430"
       cy="180"
       style="fill:#000000;fill-opacity:1;stroke:#000000;stroke-width:2"
       id="ellipse1026"
       r="2" />
    <circle
       cx="430"
       cy="280"
       style="fill:#000000;fill-opacity:1;stroke:#000000;stroke-width:2"
       id="ellipse1028"
       r="2" />
    <circle
       cx="320"
       cy="380"
       style="fill:#000000;fill-opacity:1;stroke:#000000;stroke-width:2"
       id="ellipse1030"
       r="2" />
    <circle
       cx="320"
       cy="280"
       style="fill:#000000;fill-opacity:1;stroke:#000000;stroke-width:2"
       id="ellipse1032"
       r="2" />
    <circle
       cx="320"
       cy="180"
       style="fill:#000000;fill-opacity:1;stroke:#000000;stroke-width:2"
       id="ellipse1034"
       r="2" />
  </g>
</svg>
